<svg xmlns="http://www.w3.org/2000/svg" width="1023" height="410" viewBox="0 0 1023 410">
<g>

<path d="M 55.10 259.11 C54.66,239.51 54.22,221.83 53.89,211.64 C53.22,190.48 53.18,177.42 53.76,176.84 C54.35,176.25 54.96,179.01 55.38,184.20 C55.77,188.96 56.50,195.42 57.44,202.88 C56.79,198.63 55.96,194.79 55.38,193.50 C54.21,190.92 54.09,195.04 54.51,223.00 C54.70,234.95 54.89,247.13 55.10,259.11 ZM 94.50 214.55 C96.15,213.75 98.06,213.07 98.74,213.05 C99.10,213.03 100.87,212.34 103.40,211.24 C100.24,212.72 98.02,213.94 98.02,214.25 C98.00,215.13 100.25,215.14 103.97,214.46 C101.49,214.96 99.27,215.31 97.40,215.48 C91.68,216.00 91.59,215.97 94.50,214.55 ZM 262.86 92.31 C281.20,74.68 300.58,55.71 300.84,54.96 C300.40,56.23 282.70,73.47 262.86,92.31 ZM 108.04 209.17 C109.13,208.67 110.27,208.14 111.43,207.60 C122.99,202.14 134.34,196.00 145.84,188.89 C132.63,197.14 119.97,203.95 108.04,209.17 ZM 57.67 372.25 C57.66,372.22 57.64,372.09 57.62,371.86 C58.44,372.53 64.70,372.93 71.74,373.05 C64.44,373.05 58.00,372.81 57.67,372.25 ZM 58.36 209.85 C59.04,214.93 59.80,220.33 60.61,225.88 C59.71,219.84 58.93,214.33 58.36,209.85 ZM 70.59 285.00 C72.48,294.32 75.35,306.76 78.40,319.09 C75.35,306.77 72.48,294.32 70.59,285.00 C70.40,284.08 70.21,283.10 70.01,282.06 C70.20,283.07 70.40,284.05 70.59,285.00 ZM 207.67 142.96 C209.64,141.28 211.63,139.57 213.64,137.82 C211.64,139.56 209.65,141.27 207.67,142.96 Z" fill="rgb(127,108,75)"/>
<path d="M 282.00 122.00 L 342.01 122.00 L 341.50 372.50 L 311.75 372.76 L 282.00 373.03 ZM 202.68 372.35 C202.31,371.97 202.00,330.57 202.00,280.33 L 202.00 189.00 L 263.01 189.00 L 262.76 280.75 L 262.50 372.50 L 232.93 372.76 C216.67,372.91 203.06,372.72 202.68,372.35 ZM 125.47 371.77 C125.20,371.07 125.10,339.67 125.24,302.00 L 125.50 233.50 L 185.01 232.97 L 184.50 372.50 L 155.22 372.77 C132.34,372.97 125.84,372.75 125.47,371.77 ZM 108.04 209.17 L 108.04 209.17 C119.97,203.94 132.63,197.14 145.84,188.89 C165.42,176.79 185.44,161.91 207.67,142.96 C209.65,141.27 211.64,139.56 213.64,137.82 C221.73,130.78 230.13,123.21 238.91,115.04 C245.03,109.36 253.82,101.00 262.86,92.31 C282.70,73.47 300.40,56.23 300.84,54.96 C301.02,54.42 298.19,50.76 294.55,46.83 C289.72,41.61 288.27,39.45 289.21,38.85 C289.92,38.40 302.54,38.02 317.25,38.02 L 344.00 38.00 L 344.00 69.00 C344.00,87.16 343.62,100.00 343.08,100.00 C342.58,100.00 337.85,95.39 332.57,89.77 C323.58,80.18 322.84,79.62 320.84,80.87 C319.66,81.60 311.01,88.33 301.60,95.81 C292.20,103.30 281.12,112.07 277.00,115.31 C272.88,118.55 268.51,122.03 267.31,123.04 C265.43,124.62 256.75,131.11 232.50,149.09 C208.21,167.09 159.13,195.47 137.50,204.02 C125.43,208.80 112.96,212.64 103.97,214.46 C100.25,215.14 98.00,215.13 98.02,214.25 C98.02,213.94 100.24,212.72 103.40,211.24 C104.76,210.65 106.34,209.95 108.04,209.17 ZM 55.10 259.11 C54.89,247.13 54.70,234.95 54.51,223.00 C54.09,195.04 54.21,190.92 55.38,193.50 C55.96,194.79 56.79,198.63 57.44,202.88 C57.73,205.12 58.03,207.45 58.36,209.85 L 58.36 209.85 C58.93,214.33 59.71,219.84 60.61,225.88 C63.50,245.51 67.03,266.89 70.01,282.06 L 70.01 282.06 C70.21,283.10 70.40,284.08 70.59,285.00 C72.48,294.32 75.35,306.77 78.40,319.09 C78.87,320.97 79.34,322.85 79.81,324.71 L 79.82 324.76 C83.37,338.85 86.99,352.13 89.41,359.60 C91.38,365.70 93.00,371.21 93.00,371.85 C93.00,372.60 81.59,373.05 71.74,373.05 C64.70,372.93 58.44,372.53 57.62,371.86 C57.34,368.30 56.68,341.02 56.10,308.50 C55.82,292.82 55.46,275.31 55.10,259.11 ZM 806.67 354.33 C806.30,353.97 806.00,345.87 806.00,336.33 L 806.00 319.00 L 817.05 319.00 C829.46,319.00 832.99,320.14 835.48,324.97 C838.36,330.53 836.80,338.56 832.31,341.30 C830.33,342.51 830.69,343.82 834.43,349.03 C836.32,351.66 837.59,354.08 837.26,354.40 C836.93,354.73 835.05,354.99 833.08,354.99 C829.88,354.98 829.10,354.40 825.69,349.49 C822.32,344.64 821.48,344.00 818.44,344.00 C816.55,344.00 814.94,344.45 814.88,345.00 C814.81,345.55 814.64,346.45 814.50,347.00 C814.36,347.55 814.19,349.58 814.12,351.50 C814.01,354.77 813.79,355.00 810.67,355.00 C808.83,355.00 807.03,354.70 806.67,354.33 ZM 585.00 319.00 L 608.03 319.00 L 611.64 322.31 C614.65,325.07 615.34,326.46 615.74,330.65 C616.18,335.19 615.92,336.02 613.11,339.22 C611.40,341.17 610.00,343.10 610.00,343.51 C610.00,343.92 611.54,346.41 613.43,349.03 C615.32,351.66 616.59,354.08 616.26,354.40 C615.42,355.24 609.72,355.12 608.43,354.23 C607.85,353.83 605.91,351.36 604.14,348.75 C601.20,344.43 600.55,344.00 596.95,344.00 L 593.00 344.00 L 593.00 355.00 L 585.00 355.00 ZM 701.00 318.88 L 704.69 319.19 C708.18,319.48 708.67,320.00 714.09,328.97 C717.24,334.18 720.21,338.57 720.71,338.74 C721.20,338.90 724.21,334.53 727.39,329.02 C733.18,319.01 733.19,319.00 737.12,319.00 L 741.05 319.00 L 740.50 354.50 L 733.50 354.50 L 733.21 344.75 C733.06,339.39 732.59,335.00 732.19,335.00 C731.78,335.00 729.44,338.39 726.98,342.54 C721.38,351.97 720.10,351.99 714.56,342.75 C712.34,339.04 710.19,336.00 709.80,336.00 C709.40,336.00 708.95,340.16 708.79,345.25 L 708.50 354.50 L 701.00 355.12 ZM 494.00 319.00 L 497.75 319.01 C501.31,319.02 501.90,319.53 509.50,329.23 L 517.50 339.43 L 518.07 319.00 L 525.91 319.00 L 526.20 336.10 C526.37,345.51 526.23,353.64 525.89,354.18 C525.56,354.72 523.98,355.01 522.39,354.83 C520.07,354.57 517.91,352.47 511.50,344.31 C507.10,338.71 503.18,334.09 502.78,334.06 C502.39,334.03 501.94,338.61 501.78,344.25 L 501.50 354.50 L 494.00 355.12 ZM 628.05 353.75 C628.08,353.06 631.36,345.08 635.34,336.00 L 642.57 319.50 L 647.11 319.20 L 651.64 318.91 L 659.32 336.25 C663.54,345.79 667.00,353.91 667.00,354.30 C667.00,354.68 665.17,355.00 662.93,355.00 C659.11,355.00 658.74,354.74 657.18,350.97 C655.52,346.99 655.45,346.95 651.00,347.40 C648.53,347.65 644.68,347.89 642.45,347.93 C638.76,347.99 638.29,348.31 637.14,351.50 C635.98,354.69 635.52,355.00 631.94,355.00 C629.42,355.00 628.02,354.55 628.05,353.75 ZM 754.54 354.06 C754.22,353.54 757.30,345.56 761.39,336.31 L 768.82 319.50 L 773.23 319.20 C777.21,318.93 777.76,319.18 778.94,321.70 C783.94,332.42 793.00,353.27 793.00,354.05 C793.00,354.57 791.41,355.00 789.47,355.00 C786.49,355.00 785.61,354.45 783.87,351.50 L 781.80 348.00 L 764.97 348.00 L 763.30 351.50 C761.90,354.44 761.11,355.00 758.37,355.00 C756.58,355.00 754.86,354.58 754.54,354.06 ZM 544.71 354.38 C544.32,353.99 544.00,345.87 544.00,336.33 L 544.00 319.00 L 571.00 319.00 L 571.00 325.00 L 551.89 325.00 L 552.20 329.75 L 552.50 334.50 L 569.00 335.08 L 569.00 341.00 L 552.09 341.00 L 551.80 347.75 C551.50,354.46 551.48,354.50 548.46,354.80 C546.79,354.96 545.11,354.77 544.71,354.38 ZM 860.78 340.31 L 860.50 325.50 L 854.75 325.20 C849.12,324.91 849.00,324.84 849.00,321.95 L 849.00 319.00 L 880.00 319.00 L 880.00 322.00 C880.00,324.97 879.94,325.00 874.53,325.00 L 869.05 325.00 L 868.50 354.50 L 864.78 354.81 L 861.05 355.12 ZM 468.58 351.57 C468.21,349.63 467.98,341.50 468.05,333.52 L 468.19 319.00 L 477.05 319.00 L 476.50 354.50 L 472.87 354.80 C469.43,355.09 469.21,354.92 468.58,351.57 ZM 228.00 304.00 L 214.00 304.00 L 214.01 311.75 C214.04,323.91 214.09,324.00 221.62,324.00 L 228.00 324.00 ZM 306.32 238.25 C307.15,236.82 308.08,221.37 307.43,219.69 C306.92,218.35 305.47,218.00 300.39,218.00 L 294.00 218.00 L 294.00 227.83 C294.00,233.24 294.30,237.97 294.67,238.33 C295.58,239.25 305.78,239.18 306.32,238.25 ZM 250.39 261.42 C250.73,260.55 251.00,256.05 251.00,251.42 L 251.00 243.00 L 237.00 243.00 L 237.00 252.33 C237.00,257.47 237.30,261.97 237.67,262.33 C238.03,262.70 240.91,263.00 244.06,263.00 C248.36,263.00 249.94,262.61 250.39,261.42 ZM 250.39 322.42 C251.18,320.37 251.18,307.63 250.39,305.58 C249.93,304.37 248.30,304.00 243.39,304.00 L 237.00 304.00 L 237.00 324.00 L 243.39 324.00 C248.30,324.00 249.93,323.63 250.39,322.42 ZM 329.00 218.00 L 316.00 218.00 L 316.00 227.83 C316.00,233.24 316.30,237.97 316.67,238.33 C317.03,238.70 319.96,239.00 323.17,239.00 L 329.00 239.00 ZM 307.51 167.75 C307.87,164.31 308.02,159.93 307.84,158.00 L 307.50 154.50 L 300.75 154.20 L 294.00 153.91 L 294.00 163.29 C294.00,168.45 294.30,172.97 294.67,173.33 C295.03,173.70 297.92,174.00 301.09,174.00 L 306.84 174.00 ZM 307.51 263.71 C308.65,251.57 308.64,251.55 300.75,251.20 L 294.00 250.91 L 294.00 260.29 C294.00,265.45 294.30,269.97 294.67,270.33 C295.03,270.70 297.92,271.00 301.08,271.00 L 306.83 271.00 ZM 307.44 197.02 C307.83,192.09 307.86,187.59 307.51,187.02 C307.17,186.46 303.98,186.00 300.44,186.00 L 294.00 186.00 L 294.00 195.33 C294.00,200.47 294.30,204.97 294.67,205.33 C295.03,205.70 297.90,206.00 301.04,206.00 L 306.74 206.00 ZM 329.00 251.00 L 316.00 251.00 L 316.00 271.00 L 329.00 271.00 ZM 307.00 282.00 L 294.00 282.00 L 294.00 302.00 L 307.00 302.00 ZM 329.00 282.00 L 316.00 282.00 L 316.00 302.00 L 329.00 302.00 ZM 228.00 243.00 L 215.00 243.00 L 215.00 252.33 C215.00,257.47 215.30,261.97 215.67,262.33 C216.03,262.70 218.96,263.00 222.17,263.00 L 228.00 263.00 ZM 329.00 154.00 L 316.00 154.00 L 316.00 163.33 C316.00,168.47 316.30,172.97 316.67,173.33 C317.03,173.70 319.96,174.00 323.17,174.00 L 329.00 174.00 ZM 329.00 186.00 L 316.00 186.00 L 316.00 195.33 C316.00,200.47 316.30,204.97 316.67,205.33 C317.03,205.70 319.96,206.00 323.17,206.00 L 329.00 206.00 ZM 250.50 212.50 L 237.00 211.91 L 237.00 231.09 L 243.75 230.80 L 250.50 230.50 ZM 228.00 211.91 L 221.26 212.20 C215.25,212.47 214.53,212.72 214.61,214.50 C214.66,215.60 214.76,219.76 214.85,223.75 L 215.00 231.00 L 228.00 231.00 ZM 250.50 290.01 C251.17,286.96 251.00,278.50 250.22,276.25 C249.93,275.43 247.61,275.00 243.39,275.00 L 237.00 275.00 L 237.00 293.00 L 243.42 293.00 C249.73,293.00 249.85,292.95 250.50,290.01 ZM 228.00 275.00 L 215.26 275.00 L 214.56 282.99 C214.18,287.38 214.15,291.43 214.49,291.99 C214.84,292.54 218.02,293.00 221.56,293.00 L 228.00 293.00 ZM 172.00 252.00 L 158.00 252.00 L 158.00 259.83 C158.00,264.14 158.30,267.97 158.67,268.33 C159.03,268.70 162.18,269.00 165.67,269.00 L 172.00 269.00 ZM 172.00 305.91 L 158.50 306.50 L 158.21 314.75 L 157.92 323.00 L 172.00 323.00 ZM 171.79 342.25 L 172.08 334.00 L 158.00 334.00 L 158.00 341.83 C158.00,346.14 158.32,349.99 158.71,350.38 C159.10,350.77 162.14,350.95 165.46,350.79 L 171.50 350.50 ZM 171.79 287.75 L 171.50 279.50 L 158.50 279.50 L 158.20 286.40 C158.04,290.20 158.13,293.91 158.42,294.65 C158.78,295.59 160.92,296.00 165.51,296.00 L 172.08 296.00 ZM 150.00 252.00 L 137.00 252.00 L 137.00 269.00 L 150.00 269.00 ZM 150.00 306.00 L 137.00 306.00 L 137.00 323.00 L 150.00 323.00 ZM 149.79 342.25 L 150.08 334.00 L 137.00 334.00 L 137.00 351.10 L 143.25 350.80 L 149.50 350.50 ZM 150.00 288.06 C150.00,283.69 149.66,279.95 149.25,279.75 C148.84,279.55 145.91,279.56 142.75,279.78 L 137.00 280.19 L 137.00 296.00 L 150.00 296.00 ZM 605.47 336.03 C607.46,334.37 607.44,328.58 605.43,326.57 C604.39,325.53 602.03,325.00 598.43,325.00 L 593.00 325.00 L 593.00 330.83 C593.00,334.04 593.34,337.01 593.75,337.43 C594.86,338.56 603.69,337.50 605.47,336.03 ZM 826.64 335.45 C828.62,333.47 829.05,332.29 828.54,330.20 C827.62,326.36 825.32,325.00 819.81,325.00 L 815.00 325.00 L 815.00 338.00 L 819.55 338.00 C823.08,338.00 824.66,337.44 826.64,335.45 ZM 778.44 338.75 C778.06,337.51 776.73,334.48 775.48,332.01 L 773.22 327.53 L 771.55 331.51 C770.62,333.71 769.62,336.74 769.31,338.25 C768.76,340.97 768.81,341.00 773.94,341.00 C778.87,341.00 779.10,340.88 778.44,338.75 ZM 651.03 335.83 C649.09,330.73 647.45,328.22 646.60,329.07 C645.50,330.17 642.18,339.85 642.72,340.39 C643.06,340.73 645.51,341.00 648.16,341.00 L 652.99 341.00 Z" fill="rgb(243,172,19)"/>
<path d="M 385.68 338.35 C385.31,337.97 385.00,337.07 385.00,336.33 C385.00,335.25 391.18,335.00 418.07,335.00 C449.03,335.00 451.13,335.11 450.81,336.75 C450.50,338.37 448.03,338.52 418.42,338.76 C400.79,338.91 386.05,338.72 385.68,338.35 ZM 898.34 337.45 C898.01,336.58 898.13,335.51 898.62,335.08 C899.10,334.64 914.03,334.51 931.80,334.77 C960.90,335.21 964.07,335.42 963.79,336.88 C963.51,338.33 960.04,338.53 931.21,338.76 C902.56,339.00 898.88,338.85 898.34,337.45 ZM 468.36 286.92 C461.41,284.25 454.67,276.99 452.58,269.94 C451.36,265.86 451.00,259.86 451.00,243.82 L 451.00 223.00 L 459.00 223.00 L 467.00 223.00 L 467.00 243.53 C467.00,266.57 467.64,269.59 473.19,272.97 C477.37,275.52 482.58,275.55 486.70,273.04 C491.84,269.91 493.00,264.15 493.00,241.82 L 493.00 223.00 L 500.58 223.00 L 508.16 223.00 L 507.83 246.75 C507.47,273.01 507.42,273.20 500.37,281.02 C493.55,288.57 479.42,291.17 468.36,286.92 ZM 794.73 286.64 C784.15,282.18 777.66,275.52 774.44,265.81 C772.18,259.03 772.83,246.33 775.76,239.77 C778.82,232.92 786.42,225.74 793.35,223.14 C800.36,220.52 813.35,220.22 820.12,222.52 C826.12,224.57 833.90,231.56 837.48,238.13 C839.97,242.68 840.47,244.87 840.80,252.50 C841.28,263.70 839.02,270.54 832.40,277.90 C825.98,285.04 818.85,288.28 808.61,288.72 C801.76,289.02 799.60,288.69 794.73,286.64 ZM 816.95 271.65 C828.63,263.92 827.35,242.93 814.80,236.40 C811.60,234.74 804.27,234.57 800.32,236.07 C788.35,240.60 784.89,259.69 794.36,268.87 C801.05,275.35 809.75,276.42 816.95,271.65 ZM 385.67 287.33 C385.30,286.97 385.00,272.34 385.00,254.83 L 385.00 223.00 L 405.35 223.00 C426.59,223.00 430.64,223.60 434.85,227.39 C441.88,233.73 441.74,245.12 434.56,250.78 L 432.08 252.73 L 436.14 256.00 C444.91,263.04 445.31,275.36 436.99,282.36 C431.54,286.94 425.54,288.00 404.99,288.00 C394.73,288.00 386.03,287.70 385.67,287.33 ZM 423.48 273.83 C427.73,271.89 428.16,264.23 424.13,262.07 C423.11,261.53 417.49,260.77 411.64,260.39 L 401.00 259.71 L 401.00 267.35 L 401.00 275.00 L 410.95 275.00 C416.43,275.00 422.06,274.47 423.48,273.83 ZM 420.53 247.55 C423.67,246.24 424.00,245.72 424.00,242.11 C424.00,236.18 421.71,235.00 410.28,235.00 L 401.00 235.00 L 401.00 241.33 C401.00,244.82 401.30,247.97 401.67,248.33 C402.93,249.60 417.04,249.01 420.53,247.55 ZM 520.71 287.37 C520.32,286.98 520.00,272.34 520.00,254.83 L 520.00 223.00 L 528.01 223.00 L 536.03 223.00 L 535.76 255.25 L 535.50 287.50 L 528.46 287.79 C524.58,287.95 521.09,287.76 520.71,287.37 ZM 548.69 287.35 C548.31,286.98 548.00,272.34 548.00,254.83 L 548.00 223.00 L 555.98 223.00 L 563.97 223.00 L 564.23 248.75 L 564.50 274.50 L 570.00 274.30 C573.03,274.19 579.46,274.35 584.29,274.66 L 593.09 275.22 L 592.79 281.36 L 592.50 287.50 L 570.94 287.77 C559.08,287.92 549.06,287.73 548.69,287.35 ZM 600.75 287.43 C600.34,287.01 600.00,272.31 600.00,254.76 L 600.00 222.85 L 620.25 223.18 C642.99,223.54 644.63,223.97 652.39,231.65 C658.84,238.05 660.50,242.82 660.50,255.00 C660.50,264.48 660.24,266.00 657.80,270.62 C656.31,273.44 653.02,277.57 650.49,279.80 C643.25,286.17 639.12,287.21 619.00,287.74 C609.38,287.99 601.16,287.85 600.75,287.43 ZM 636.50 271.73 C644.34,267.34 647.41,254.91 643.04,245.27 C640.11,238.83 636.32,237.01 625.79,237.00 L 617.09 237.00 L 616.79 255.50 L 616.50 274.00 L 624.50 273.98 C630.90,273.97 633.30,273.52 636.50,271.73 ZM 692.71 287.37 C692.32,286.98 692.00,272.32 692.00,254.79 L 692.00 222.92 L 700.71 223.21 L 709.42 223.50 L 718.11 238.97 C722.90,247.48 727.19,254.56 727.66,254.71 C728.12,254.86 729.44,253.30 730.59,251.24 C731.74,249.18 735.67,242.10 739.33,235.50 C746.68,222.24 746.55,222.34 757.25,222.12 L 763.00 222.00 L 763.00 255.04 L 763.00 288.09 L 755.75 287.79 L 748.50 287.50 L 748.23 268.75 C748.08,258.44 747.63,250.01 747.23,250.02 C746.83,250.03 743.18,255.88 739.13,263.02 L 731.76 276.00 L 727.51 276.00 L 723.25 276.00 L 716.04 263.25 C712.07,256.24 708.40,250.05 707.87,249.51 C707.27,248.88 706.97,255.64 707.05,268.01 L 707.17 287.50 L 700.29 287.79 C696.51,287.95 693.09,287.76 692.71,287.37 ZM 851.00 255.50 L 851.00 223.00 L 869.75 223.02 C890.42,223.05 893.72,223.79 899.20,229.62 C908.44,239.49 905.81,257.75 894.25,263.88 C892.02,265.06 892.07,265.17 899.04,275.56 C902.91,281.33 905.81,286.49 905.48,287.03 C905.15,287.56 901.57,288.00 897.53,288.00 C890.21,288.00 890.15,287.98 887.25,284.25 C885.64,282.19 882.44,277.69 880.13,274.25 L 875.93 268.00 L 870.96 268.00 L 866.00 268.00 L 866.00 278.00 L 866.00 288.00 L 858.50 288.00 L 851.00 288.00 L 851.00 255.50 ZM 882.25 253.95 C886.33,252.81 889.00,249.07 889.00,244.48 C889.00,237.96 884.02,235.00 873.03,235.00 L 866.00 235.00 L 866.00 244.33 C866.00,249.47 866.30,253.97 866.67,254.33 C867.70,255.37 878.07,255.11 882.25,253.95 ZM 914.67 287.33 C914.30,286.97 914.00,272.34 914.00,254.83 L 914.00 223.00 L 938.00 223.00 L 962.00 223.00 L 962.00 229.00 L 962.00 235.00 L 946.00 235.00 L 930.00 235.00 L 930.00 242.00 L 930.00 249.00 L 944.55 249.00 L 959.10 249.00 L 958.80 255.25 L 958.50 261.50 L 944.20 261.78 L 929.91 262.06 L 930.20 268.28 L 930.50 274.50 L 946.75 274.77 L 963.00 275.05 L 963.00 281.52 L 963.00 288.00 L 939.17 288.00 C926.06,288.00 915.03,287.70 914.67,287.33 Z" fill="rgb(248,248,248)"/>
</g>
</svg>